<svg width="240" height="240" viewBox="0 0 240 240" fill="none" xmlns="http://www.w3.org/2000/svg">
<mask id="mask0" mask-type="alpha" maskUnits="userSpaceOnUse" x="0" y="0" width="240" height="240">
<circle cx="120" cy="120" r="120" fill="#294877"/>
</mask>
<g mask="url(#mask0)">
<rect y="-1" width="240" height="247" fill="url(#paint0_linear)"/>
<rect x="-6" y="177" width="257" height="99" fill="#557676"/>
<rect x="1" y="180" width="243" height="3" fill="#B1AE92"/>
<rect x="6" y="203" width="163" height="6" rx="3" fill="#4A6565"/>
<path d="M108.132 129.233C108.132 125.919 110.819 123.233 114.132 123.233H147.962C150.09 123.233 152.059 124.36 153.136 126.194L167.721 151.028C170.07 155.027 167.186 160.066 162.547 160.066H114.132C110.819 160.066 108.132 157.38 108.132 154.066V129.233Z" fill="#C4C4C4"/>
<path d="M98.7778 157.864C98.7778 152.09 103.654 147.516 109.416 147.884L187.638 152.888C192.903 153.225 197 157.592 197 162.867V179.299C197 184.822 192.523 189.299 187 189.299H108.778C103.255 189.299 98.7778 184.822 98.7778 179.299V157.864Z" fill="#C4C4C4"/>
<path d="M127.841 130.495C127.841 129.39 128.737 128.495 129.841 128.495H147.131C147.854 128.495 148.522 128.886 148.876 129.517L159.083 147.734C159.83 149.067 158.866 150.712 157.338 150.712H129.841C128.737 150.712 127.841 149.816 127.841 148.712V130.495Z" fill="#3D8699"/>
<path d="M-24 103C-24 98.0295 -19.9706 94 -15 94H115.503C120.473 94 124.503 98.0294 124.503 103V189.299H-24V103Z" fill="#EEEEEE"/>
<path d="M-15.8149 94H118.503C121.816 94 124.503 96.6863 124.503 100V103.939H-15.8149V94Z" fill="#CCCCCC"/>
<path fill-rule="evenodd" clip-rule="evenodd" d="M171.858 189.299H130.351C130.35 189.202 130.349 189.104 130.349 189.007C130.349 177.544 139.642 168.251 151.104 168.251C162.567 168.251 171.86 177.544 171.86 189.007C171.86 189.104 171.859 189.202 171.858 189.299Z" fill="#333333"/>
<circle cx="151.397" cy="189.299" r="16.955" fill="#555555"/>
<circle cx="151.397" cy="189.299" r="9.3545" fill="#CCCCCC"/>
<path fill-rule="evenodd" clip-rule="evenodd" d="M37.3867 189.299H-4.11981C-4.12115 189.202 -4.12183 189.104 -4.12183 189.007C-4.12183 177.544 5.17063 168.251 16.6335 168.251C28.0963 168.251 37.3888 177.544 37.3888 189.007C37.3888 189.104 37.3881 189.202 37.3867 189.299Z" fill="#333333"/>
<circle cx="16.9257" cy="189.299" r="16.955" fill="#555555"/>
<circle cx="16.9258" cy="189.299" r="9.3545" fill="#CCCCCC"/>
</g>
<defs>
<linearGradient id="paint0_linear" x1="120" y1="-1" x2="120" y2="246" gradientUnits="userSpaceOnUse">
<stop stop-color="#52B8B8"/>
<stop offset="1" stop-color="#306786"/>
</linearGradient>
</defs>
</svg>
