<svg width="26" height="26" viewBox="0 0 26 26" fill="none" xmlns="http://www.w3.org/2000/svg">
<path d="M8.07812 15.1094C9.85938 14.6875 11.5 14.4766 13 14.4766C14.5 14.4766 16.1406 14.6875 17.9219 15.1094C19.7031 15.5312 21.3203 16.2344 22.7734 17.2188C24.2734 18.2031 25.0234 19.3047 25.0234 20.5234V25.0234H0.976562V20.5234C0.976562 19.3047 1.70312 18.2031 3.15625 17.2188C4.65625 16.2344 6.29688 15.5312 8.07812 15.1094ZM8.78125 2.80469C9.95312 1.58594 11.3594 0.976562 13 0.976562C14.6406 0.976562 16.0469 1.58594 17.2188 2.80469C18.3906 3.97656 18.9766 5.38281 18.9766 7.02344C18.9766 8.66406 18.3906 10.0703 17.2188 11.2422C16.0469 12.4141 14.6406 13 13 13C11.3594 13 9.95312 12.4141 8.78125 11.2422C7.60938 10.0703 7.02344 8.66406 7.02344 7.02344C7.02344 5.38281 7.60938 3.97656 8.78125 2.80469ZM19.1172 18.5547C17.1016 17.7578 15.0625 17.3594 13 17.3594C10.9375 17.3594 8.89844 17.7578 6.88281 18.5547C4.86719 19.3047 3.85938 19.9609 3.85938 20.5234V22.1406H22.1406V20.5234C22.1406 19.9609 21.1328 19.3047 19.1172 18.5547ZM15.25 4.77344C14.6406 4.16406 13.8906 3.85938 13 3.85938C12.1094 3.85938 11.3594 4.16406 10.75 4.77344C10.1406 5.38281 9.83594 6.13281 9.83594 7.02344C9.83594 7.91406 10.1406 8.66406 10.75 9.27344C11.3594 9.83594 12.1094 10.1172 13 10.1172C13.8906 10.1172 14.6406 9.83594 15.25 9.27344C15.8594 8.66406 16.1641 7.91406 16.1641 7.02344C16.1641 6.13281 15.8594 5.38281 15.25 4.77344Z" fill="#862633"/>
</svg>
