<svg width="24" height="23" viewBox="0 0 24 23" fill="none" xmlns="http://www.w3.org/2000/svg">
<path d="M13.7143 18.8437C13.7143 19.0848 13.5268 19.2857 13.2857 19.2857H10.7143C10.4732 19.2857 10.2857 19.0848 10.2857 18.8437V16.2991C10.2857 16.058 10.4732 15.8571 10.7143 15.8571H13.2857C13.5268 15.8571 13.7143 16.058 13.7143 16.2991V18.8437ZM13.6875 13.8348C13.6741 14.0089 13.4732 14.1429 13.2321 14.1429H10.7545C10.5 14.1429 10.2991 14.0089 10.2991 13.8348L10.0714 7.71428C10.0714 7.63393 10.1116 7.5 10.2054 7.43303C10.2857 7.36607 10.4063 7.28571 10.5268 7.28571H13.4732C13.5938 7.28571 13.7143 7.36607 13.7946 7.43303C13.8884 7.5 13.9286 7.60714 13.9286 7.6875L13.6875 13.8348ZM13.5 1.32589C13.2054 0.776785 12.6295 0.42857 12 0.42857C11.3705 0.42857 10.7946 0.776785 10.5 1.32589L0.214286 20.183C-0.0803571 20.7054 -0.0669643 21.3482 0.241071 21.8705C0.549107 22.3929 1.11161 22.7143 1.71429 22.7143H22.2857C22.8884 22.7143 23.4509 22.3929 23.7589 21.8705C24.067 21.3482 24.0804 20.7054 23.7857 20.183L13.5 1.32589Z" fill="#D10D00"/>
</svg>
