<svg width="34" height="34" viewBox="0 0 34 34" fill="none" xmlns="http://www.w3.org/2000/svg">
<path d="M29.0208 4.97913C32.2317 8.19007 34 12.4591 34 17C34 21.5409 32.2317 25.8099 29.0208 29.0208C25.8099 32.2317 21.5409 34 17 34C12.4591 34 8.19002 32.2317 4.97914 29.0208C1.76827 25.8099 0 21.5409 0 17C0 12.4591 1.76827 8.19 4.97914 4.97913C8.18995 1.76832 12.4591 0 17 0C21.5409 0 25.8099 1.76832 29.0208 4.97913ZM17 32.0078C25.2753 32.0078 32.0078 25.2753 32.0078 17C32.0078 8.72465 25.2753 1.99219 17 1.99219C8.72465 1.99219 1.99219 8.72465 1.99219 17C1.99219 25.2753 8.72465 32.0078 17 32.0078ZM24.6386 11.6209C25.0316 12.0046 25.0316 12.6265 24.6386 13.0101L15.0406 22.379C14.8441 22.5707 14.5865 22.6667 14.329 22.6667C14.0715 22.6667 13.814 22.5708 13.6175 22.379L8.22809 17.1183C7.83508 16.7346 7.83508 16.1126 8.22809 15.7291C8.62109 15.3455 9.25829 15.3455 9.65123 15.7291L14.3291 20.2953L23.2155 11.621C23.6084 11.2374 24.2456 11.2375 24.6386 11.6209Z" fill="#CCCCCC"/>
</svg>
