<svg width="11" height="21" viewBox="0 0 11 21" fill="none" xmlns="http://www.w3.org/2000/svg">
<path d="M10.9152 14.0826C10.9152 11.3929 8.59375 10.4888 6.54018 9.69643C4.95536 9.08259 3.59375 8.55804 3.59375 7.375C3.59375 6.35938 4.57589 5.65625 5.9933 5.65625C7.66741 5.65625 9.01786 6.85045 9.02902 6.86161C9.1183 6.92857 9.21875 6.96205 9.33036 6.93973C9.44196 6.92857 9.53125 6.86161 9.58705 6.76116L10.4911 5.1317C10.5692 4.99777 10.5469 4.83036 10.4353 4.70759C10.3906 4.66295 9.18527 3.43527 6.91964 3.17857V1.21429C6.91964 1.01339 6.76339 0.857141 6.5625 0.857141H5.0558C4.86607 0.857141 4.69866 1.01339 4.69866 1.21429V3.22321C2.36607 3.66964 0.758929 5.36607 0.758929 7.41964C0.758929 10.221 3.25893 11.2254 5.26786 12.0179C6.77455 12.6205 8.09152 13.1451 8.09152 14.2165C8.09152 15.4777 6.90848 16.058 5.81473 16.058C3.83929 16.058 2.27679 14.5625 2.25446 14.5513C2.1875 14.4732 2.08705 14.4397 1.98661 14.4509C1.88616 14.4621 1.78571 14.5067 1.72991 14.5848L0.580357 16.0915C0.479911 16.2254 0.491071 16.4152 0.602679 16.5491C0.658482 16.6161 2.08705 18.1786 4.69866 18.5469V20.5C4.69866 20.7009 4.86607 20.8571 5.0558 20.8571H6.5625C6.76339 20.8571 6.91964 20.7009 6.91964 20.5V18.5469C9.28571 18.1562 10.9152 16.3594 10.9152 14.0826Z" fill="#862633"/>
</svg>
