<svg width="20" height="16" viewBox="0 0 20 16" fill="none" xmlns="http://www.w3.org/2000/svg">
<path d="M20 5.06696C19.6652 5.43527 19.2857 5.75893 18.8839 6.03795C17.0201 7.29911 15.1451 8.57143 13.3259 9.88839C12.3884 10.5804 11.2277 11.4286 10.0112 11.4286H10H9.98884C8.77232 11.4286 7.61161 10.5804 6.67411 9.88839C4.85491 8.56027 2.97991 7.29911 1.12723 6.03795C0.714286 5.75893 0.334821 5.43527 0 5.06696V13.9286C0 14.9107 0.803571 15.7143 1.78571 15.7143H18.2143C19.1964 15.7143 20 14.9107 20 13.9286V5.06696ZM20 1.78571C20 0.803571 19.1853 0 18.2143 0H1.78571C0.591518 0 0 0.9375 0 2.03125C0 3.04688 1.12723 4.30804 1.91964 4.84375C3.64955 6.04911 5.40179 7.25446 7.1317 8.47098C7.85714 8.97322 9.08482 10 9.98884 10H10H10.0112C10.9152 10 12.1429 8.97322 12.8683 8.47098C14.5982 7.25446 16.3504 6.04911 18.0915 4.84375C19.0737 4.16295 20 3.03571 20 1.78571Z" fill="#862633"/>
</svg>
