<svg width="150" height="103" viewBox="0 0 150 103" fill="none" xmlns="http://www.w3.org/2000/svg">
<g clip-path="url(#clip0)">
<path fill-rule="evenodd" clip-rule="evenodd" d="M132.192 0H7.9612C3.5639 0.00248193 0.00248963 3.5535 0 7.93534V94.7122C0.00248963 99.0959 3.56639 102.643 7.9612 102.643H132.192C136.585 102.643 140.151 99.0959 140.155 94.7122V7.93534C140.151 3.55102 136.586 0.00248193 132.192 0ZM138.302 94.7135C138.302 98.0734 135.561 100.797 132.192 100.797H7.95996C4.58963 100.797 1.85477 98.0734 1.85477 94.7135V7.93658C1.85477 4.57419 4.58963 1.8478 7.95996 1.8478H132.192C135.561 1.8478 138.302 4.57419 138.302 7.93658V94.7135Z" fill="#CCCCCC"/>
<path fill-rule="evenodd" clip-rule="evenodd" d="M10.5185 6.97858H129.74C131.221 6.97858 132.432 8.18356 132.432 9.65906V92.45C132.432 93.9298 131.221 95.1342 129.74 95.1342H10.5185C9.03527 95.1342 7.83216 93.9298 7.83216 92.45V9.65906C7.83216 8.18356 9.03527 6.97858 10.5185 6.97858ZM10.5185 5.23999C8.07676 5.23999 6.08942 7.22243 6.08942 9.65906V92.45C6.08942 94.8891 8.07676 96.8728 10.5185 96.8728H129.74C132.188 96.8728 134.176 94.8891 134.176 92.45V9.65906C134.176 7.22243 132.188 5.23999 129.74 5.23999H10.5185Z" fill="#CCCCCC"/>
<path fill-rule="evenodd" clip-rule="evenodd" d="M36.4122 74.083V85.5464L39.2261 85.2771V73.8199L36.4122 74.083Z" fill="#CCCCCC"/>
<path fill-rule="evenodd" clip-rule="evenodd" d="M51.2688 85.6752V73.8203L48.4487 74.0834V80.1604L41.0116 73.8203H40.9792V85.5449L43.7937 85.2769V79.2011L51.2315 85.6752H51.2688Z" fill="#CCCCCC"/>
<path fill-rule="evenodd" clip-rule="evenodd" d="M60.1667 75.1258C59.1634 74.2981 57.8333 73.8203 56.5219 73.8203C54.4673 73.8203 52.386 75.0743 52.386 77.3223C52.386 81.3834 57.4735 80.3267 57.4735 82.0907C57.4735 82.8173 56.5611 83.1008 55.9767 83.1008C55.1308 83.1008 54.3715 82.7999 53.8399 82.1918L52.1495 84.3375C53.2256 85.262 54.6877 85.6746 56.0962 85.6746C58.4632 85.6746 60.4493 84.4367 60.4493 81.8928C60.4493 77.7306 55.3636 78.9033 55.3636 77.1045C55.3636 76.5113 56.1123 76.216 56.6084 76.216C57.4816 76.216 57.9821 76.5113 58.6281 77.0716L60.1667 75.1258Z" fill="#CCCCCC"/>
<path fill-rule="evenodd" clip-rule="evenodd" d="M70.8907 73.8195L68.0768 74.0832V80.2762C68.0768 81.8268 67.8571 83.1 66.0335 83.1C64.6337 83.1 64.2801 82.0905 64.2801 80.8911V73.8195L61.4631 74.0832V81.681C61.4631 84.4384 63.3198 85.6744 65.9706 85.6744C68.8231 85.6744 70.8907 84.1244 70.8907 81.4812V73.8195Z" fill="#CCCCCC"/>
<path fill-rule="evenodd" clip-rule="evenodd" d="M75.222 76.4765C76.3779 76.4262 77.3768 76.6415 77.3768 77.9979C77.3768 79.335 76.4295 79.7296 75.222 79.6477V76.4765ZM72.4044 85.5454L75.222 85.278V80.3266H75.2525L78.5638 85.6763L81.4175 84.7661L78.349 80.4587C79.5061 80.0287 80.1901 78.758 80.1901 77.5865C80.1901 75.0084 78.2544 74.0826 75.5992 74.0826H72.4044V85.5454Z" fill="#CCCCCC"/>
<path fill-rule="evenodd" clip-rule="evenodd" d="M87.393 73.8195L81.332 85.1011L84.0619 85.6744L85.2015 83.2483H89.5273L90.6887 85.6744L93.558 85.1011L87.4266 73.8195H87.393ZM87.393 78.3781L88.8986 81.1511H85.8831L87.393 78.3781Z" fill="#CCCCCC"/>
<path fill-rule="evenodd" clip-rule="evenodd" d="M104.826 85.6752V73.8203L102.013 74.0834V80.1604L94.5754 73.8203H94.5424V85.5449L97.3588 85.2769V79.2011L104.797 85.6752H104.826Z" fill="#CCCCCC"/>
<path fill-rule="evenodd" clip-rule="evenodd" d="M113.887 74.1824C113.321 73.9181 112.659 73.8188 112.033 73.8188C108.589 73.8188 106.152 76.3945 106.152 79.7835C106.152 83.2942 108.589 85.675 112.046 85.675C112.56 85.675 113.574 85.5112 114.036 85.2612L114.386 82.258C113.786 82.6855 113.008 83.0994 112.245 83.0994C110.242 83.0994 108.967 81.6822 108.967 79.7122C108.967 77.7676 110.326 76.3945 112.245 76.3945C113.008 76.3945 113.705 76.7742 114.314 77.2054L113.887 74.1824Z" fill="#CCCCCC"/>
<path fill-rule="evenodd" clip-rule="evenodd" d="M122.51 85.4135L123.204 83.0184H118.745V80.8356H121.68V78.4442H118.745V76.4767H122.855L122.353 74.0835H115.93V85.4135H122.51Z" fill="#CCCCCC"/>
<path fill-rule="evenodd" clip-rule="evenodd" d="M53.4308 21.6481H60.4067L59.1818 16.9877H48.3395V37.7105L53.4308 37.4735V30.3677H58.494V26.0374H53.4308V21.6481Z" fill="#CCCCCC"/>
<path fill-rule="evenodd" clip-rule="evenodd" d="M68.967 16.5115L57.9977 36.9055L62.939 37.951L65.011 33.5629H72.8309L74.9316 37.951L80.1094 36.9055L69.0249 16.5115H68.967ZM68.967 24.754L71.6882 29.7718H66.2428L68.967 24.754Z" fill="#CCCCCC"/>
<path fill-rule="evenodd" clip-rule="evenodd" d="M86.2522 21.3206C88.3528 21.2288 90.1509 21.6141 90.1509 24.0644C90.1509 26.4836 88.4455 27.2015 86.2522 27.0539V21.3206ZM81.1609 37.7113L86.2522 37.2316V28.275H86.3157L92.3057 37.9501L97.4592 36.3071L91.9155 28.5145C94.0148 27.7395 95.2416 25.4363 95.2416 23.3192C95.2416 18.6631 91.7387 16.9884 86.9449 16.9884H81.1609V37.7113Z" fill="#CCCCCC"/>
<path fill-rule="evenodd" clip-rule="evenodd" d="M109.963 29.0527L103.491 16.5109H103.432L97.7983 37.2319L103.01 37.9504L104.779 28.1269H104.839L109.75 37.9504H109.814L115.205 28.0971H115.262L117.028 37.9504L122.151 37.2319L116.703 16.5109H116.644L109.963 29.0527Z" fill="#CCCCCC"/>
<path fill-rule="evenodd" clip-rule="evenodd" d="M22.5162 46.4329H23.6185C24.8198 46.4329 26.199 46.8827 26.199 48.4351C26.199 49.7177 25.4173 50.5553 23.8002 50.5553H22.5162V46.4329ZM17.4181 42.4034V62.8856H24.4301C29.6708 62.8856 31.8903 60.4359 31.8903 57.1839C31.8903 54.7361 30.455 52.8828 28.594 52.1363V52.0755C30.2085 51.3886 31.2915 49.7481 31.2915 47.7781C31.2915 43.5973 27.3019 42.4034 23.2301 42.4034H17.4181ZM22.5162 54.5841H23.8002C25.3569 54.5841 26.7978 54.8559 26.7978 56.7657C26.7978 58.4361 25.4173 58.8537 23.865 58.8537H22.5162V54.5841Z" fill="#CCCCCC"/>
<path fill-rule="evenodd" clip-rule="evenodd" d="M50.908 41.9235L45.8143 42.4031V53.6003C45.8143 56.4049 45.4259 58.7081 42.1302 58.7081C39.5834 58.7081 38.9535 56.882 38.9535 54.7029V41.9235L33.8616 42.4031V56.1356C33.8616 61.1212 37.2201 63.3617 42.0095 63.3617C47.1661 63.3617 50.908 60.5522 50.908 55.7782V41.9235Z" fill="#CCCCCC"/>
<path fill-rule="evenodd" clip-rule="evenodd" d="M58.6909 46.7294C60.7934 46.6395 62.5834 47.0304 62.5834 49.4776C62.5834 51.8981 60.8768 52.6166 58.6909 52.4664V46.7294ZM53.5996 63.1251L58.6909 62.646V53.6906H58.7519L64.7444 63.3621L69.8998 61.719L64.3529 53.9252C66.4511 53.1477 67.6809 50.8507 67.6809 48.7311C67.6809 44.0756 64.1718 42.4034 59.3805 42.4034H53.5996V63.1251Z" fill="#CCCCCC"/>
<path fill-rule="evenodd" clip-rule="evenodd" d="M82.7165 62.8853L83.9737 58.5562H75.9142V54.6167H81.2196V50.2827H75.9142V46.7298H83.3464L82.4476 42.4044H70.821V62.8853H82.7165Z" fill="#CCCCCC"/>
<path fill-rule="evenodd" clip-rule="evenodd" d="M95.1196 41.9235L84.1509 62.3175L89.0966 63.3617L91.1592 58.9755H98.9804L101.074 63.3617L106.258 62.3175L95.1744 41.9235H95.1196ZM95.1196 50.1672L97.842 55.1838H92.3897L95.1196 50.1672Z" fill="#CCCCCC"/>
<path fill-rule="evenodd" clip-rule="evenodd" d="M122.91 41.9235L117.812 42.4031V53.6003C117.812 56.4049 117.424 58.7081 114.128 58.7081C111.585 58.7081 110.951 56.882 110.951 54.7029V41.9235L105.86 42.4031V56.1356C105.86 61.1212 109.217 63.3617 114.009 63.3617C119.16 63.3617 122.91 60.5522 122.91 55.7782V41.9235Z" fill="#CCCCCC"/>
<path fill-rule="evenodd" clip-rule="evenodd" d="M16.5809 69.222H124.109V67.4456H16.5809V69.222Z" fill="#CCCCCC"/>
<path fill-rule="evenodd" clip-rule="evenodd" d="M146.522 95.9974H145.455V97.4382H146.522C146.867 97.4382 147.245 97.1447 147.245 96.7345C147.245 96.294 146.867 95.9974 146.522 95.9974ZM147.18 99.5013L146.146 97.9296H145.455V99.5013H144.897V95.524H146.522C147.196 95.524 147.82 95.9974 147.82 96.7345C147.82 97.6193 147.032 97.9134 146.801 97.9134L147.87 99.5013H147.18ZM146.227 94.5585C144.586 94.5585 143.256 95.8503 143.256 97.5045C143.256 99.124 144.586 100.466 146.227 100.466C147.87 100.466 149.182 99.124 149.182 97.5045C149.182 95.8503 147.87 94.5585 146.227 94.5585ZM146.227 100.974C144.306 100.974 142.746 99.4187 142.746 97.5045C142.746 95.5717 144.306 94.0336 146.227 94.0336C148.165 94.0336 149.708 95.5717 149.708 97.5045C149.708 99.4187 148.165 100.974 146.227 100.974Z" fill="#CCCCCC"/>
</g>
<defs>
<clipPath id="clip0">
<rect width="150" height="103" fill="white"/>
</clipPath>
</defs>
</svg>
