<svg width="146" height="100" viewBox="0 0 146 100" fill="none" xmlns="http://www.w3.org/2000/svg">
<g clip-path="url(#clip0)">
<path fill-rule="evenodd" clip-rule="evenodd" d="M10.1806 6.7753H125.572C127.005 6.7753 128.177 7.94518 128.177 9.37771V89.7572C128.177 91.194 127.005 92.3633 125.572 92.3633H10.1806C8.74502 92.3633 7.58057 91.194 7.58057 89.7572V9.37771C7.58057 7.94518 8.74502 6.7753 10.1806 6.7753Z" fill="#862633"/>
<path fill-rule="evenodd" clip-rule="evenodd" d="M127.945 0H7.70542C3.4494 0.00240964 0.00240964 3.45 0 7.70422V91.9536C0.00240964 96.2096 3.45181 99.653 7.70542 99.653H127.945C132.197 99.653 135.648 96.2096 135.652 91.9536V7.70422C135.648 3.44759 132.198 0.00240964 127.945 0ZM133.858 91.9548C133.858 95.2169 131.206 97.8614 127.945 97.8614H7.70422C4.44217 97.8614 1.79518 95.2169 1.79518 91.9548V7.70542C1.79518 4.44096 4.44217 1.79398 7.70422 1.79398H127.945C131.206 1.79398 133.858 4.44096 133.858 7.70542V91.9548Z" fill="#FFFFFE"/>
<path fill-rule="evenodd" clip-rule="evenodd" d="M10.1805 6.77529H125.572C127.005 6.77529 128.177 7.94517 128.177 9.3777V89.7572C128.177 91.194 127.005 92.3632 125.572 92.3632H10.1805C8.745 92.3632 7.58055 91.194 7.58055 89.7572V9.3777C7.58055 7.94517 8.745 6.77529 10.1805 6.77529ZM10.1805 5.08734C7.81729 5.08734 5.8938 7.01204 5.8938 9.3777V89.7572C5.8938 92.1253 7.81729 94.0512 10.1805 94.0512H125.572C127.941 94.0512 129.865 92.1253 129.865 89.7572V9.3777C129.865 7.01204 127.941 5.08734 125.572 5.08734H10.1805Z" fill="#FFFFFE"/>
<path fill-rule="evenodd" clip-rule="evenodd" d="M35.2424 71.9253V83.0548L37.9659 82.7934V71.6699L35.2424 71.9253Z" fill="#FFFFFE"/>
<path fill-rule="evenodd" clip-rule="evenodd" d="M49.6216 83.1799V71.6703L46.8921 71.9257V77.8257L39.6939 71.6703H39.6626V83.0534L42.3867 82.7931V76.8944L49.5855 83.1799H49.6216Z" fill="#FFFFFE"/>
<path fill-rule="evenodd" clip-rule="evenodd" d="M58.2335 72.9377C57.2624 72.1341 55.9751 71.6703 54.7058 71.6703C52.7173 71.6703 50.7028 72.8877 50.7028 75.0703C50.7028 79.013 55.6269 77.9871 55.6269 79.6998C55.6269 80.4052 54.7438 80.6805 54.1781 80.6805C53.3594 80.6805 52.6245 80.3883 52.11 79.798L50.4739 81.8811C51.5154 82.7787 52.9305 83.1793 54.2938 83.1793C56.5847 83.1793 58.507 81.9775 58.507 79.5076C58.507 75.4666 53.5847 76.6052 53.5847 74.8588C53.5847 74.2829 54.3094 73.9962 54.7895 73.9962C55.6347 73.9962 56.1191 74.2829 56.7444 74.8269L58.2335 72.9377Z" fill="#FFFFFE"/>
<path fill-rule="evenodd" clip-rule="evenodd" d="M68.6132 71.6694L65.8897 71.9254V77.9381C65.8897 79.4435 65.6771 80.6796 63.912 80.6796C62.5572 80.6796 62.215 79.6995 62.215 78.5351V71.6694L59.4885 71.9254V79.3019C59.4885 81.979 61.2855 83.179 63.8512 83.179C66.612 83.179 68.6132 81.6742 68.6132 79.108V71.6694Z" fill="#FFFFFE"/>
<path fill-rule="evenodd" clip-rule="evenodd" d="M72.8052 74.2491C73.9239 74.2003 74.8908 74.4093 74.8908 75.7262C74.8908 77.0244 73.9739 77.4075 72.8052 77.328V74.2491ZM70.0781 83.0539L72.8052 82.7942V77.987H72.8347L76.0396 83.181L78.8016 82.2972L75.8317 78.1153C76.9516 77.6978 77.6137 76.4641 77.6137 75.3268C77.6137 72.8237 75.7402 71.925 73.1703 71.925H70.0781V83.0539Z" fill="#FFFFFE"/>
<path fill-rule="evenodd" clip-rule="evenodd" d="M84.5853 71.6694L78.719 82.6224L81.3612 83.179L82.4642 80.8236H86.6509L87.775 83.179L90.5521 82.6224L84.6178 71.6694H84.5853ZM84.5853 76.0953L86.0425 78.7875H83.1238L84.5853 76.0953Z" fill="#FFFFFE"/>
<path fill-rule="evenodd" clip-rule="evenodd" d="M101.459 83.1799V71.6703L98.735 71.9257V77.8257L91.5368 71.6703H91.5049V83.0534L94.2308 82.7931V76.8944L101.43 83.1799H101.459Z" fill="#FFFFFE"/>
<path fill-rule="evenodd" clip-rule="evenodd" d="M110.228 72.0217C109.68 71.7651 109.039 71.6687 108.434 71.6687C105.1 71.6687 102.741 74.1693 102.741 77.4597C102.741 80.8681 105.1 83.1796 108.446 83.1796C108.943 83.1796 109.925 83.0205 110.372 82.7778L110.711 79.8621C110.13 80.2772 109.378 80.679 108.638 80.679C106.7 80.679 105.466 79.3031 105.466 77.3904C105.466 75.5025 106.782 74.1693 108.638 74.1693C109.378 74.1693 110.052 74.538 110.641 74.9567L110.228 72.0217Z" fill="#FFFFFE"/>
<path fill-rule="evenodd" clip-rule="evenodd" d="M118.574 82.9257L119.245 80.6004H114.93V78.4811H117.77V76.1595H114.93V74.2492H118.907L118.422 71.9257H112.205V82.9257H118.574Z" fill="#FFFFFE"/>
<path fill-rule="evenodd" clip-rule="evenodd" d="M51.7141 21.0175H58.4659L57.2804 16.4928H46.7864V36.6121L51.7141 36.382V29.4832H56.6147V25.279H51.7141V21.0175Z" fill="#FFFFFE"/>
<path fill-rule="evenodd" clip-rule="evenodd" d="M66.7511 16.0306L56.1343 35.8306L60.9168 36.8457L62.9222 32.5854H70.4909L72.524 36.8457L77.5355 35.8306L66.8072 16.0306H66.7511ZM66.7511 24.033L69.3849 28.9047H64.1144L66.7511 24.033Z" fill="#FFFFFE"/>
<path fill-rule="evenodd" clip-rule="evenodd" d="M83.4809 20.6996C85.5141 20.6104 87.2544 20.9845 87.2544 23.3634C87.2544 25.7122 85.6038 26.4092 83.4809 26.2658V20.6996ZM78.5532 36.6128L83.4809 36.1472V27.4514H83.5424L89.34 36.8448L94.3279 35.2496L88.9623 27.6839C90.9942 26.9315 92.1815 24.6954 92.1815 22.6399C92.1815 18.1195 88.7912 16.4936 84.1514 16.4936H78.5532V36.6128Z" fill="#FFFFFE"/>
<path fill-rule="evenodd" clip-rule="evenodd" d="M106.43 28.2064L100.166 16.0299H100.109L94.6562 36.1474L99.7002 36.845L101.413 27.3076H101.471L106.224 36.845H106.286L111.503 27.2787H111.559L113.268 36.845L118.226 36.1474L112.953 16.0299H112.897L106.43 28.2064Z" fill="#FFFFFE"/>
<path fill-rule="evenodd" clip-rule="evenodd" d="M21.7927 45.0804H22.8596C24.0223 45.0804 25.3572 45.5172 25.3572 47.0244C25.3572 48.2696 24.6006 49.0829 23.0355 49.0829H21.7927V45.0804ZM16.8584 41.1684V61.0539H23.6451C28.7174 61.0539 30.8656 58.6756 30.8656 55.5184C30.8656 53.1419 29.4765 51.3425 27.6753 50.6178V50.5588C29.2379 49.8919 30.2861 48.2991 30.2861 46.3865C30.2861 42.3274 26.4247 41.1684 22.4837 41.1684H16.8584ZM21.7927 52.9943H23.0355C24.5421 52.9943 25.9367 53.2582 25.9367 55.1124C25.9367 56.7341 24.6006 57.1395 23.0982 57.1395H21.7927V52.9943Z" fill="#FFFFFE"/>
<path fill-rule="evenodd" clip-rule="evenodd" d="M49.2725 40.7023L44.3424 41.168V52.0391C44.3424 54.762 43.9665 56.9981 40.7767 56.9981C38.3116 56.9981 37.702 55.2252 37.702 53.1096V40.7023L32.7737 41.168V54.5005C32.7737 59.3409 36.0243 61.5162 40.6598 61.5162C45.6508 61.5162 49.2725 58.7885 49.2725 54.1535V40.7023Z" fill="#FFFFFE"/>
<path fill-rule="evenodd" clip-rule="evenodd" d="M56.8052 45.3684C58.8401 45.281 60.5726 45.6606 60.5726 48.0365C60.5726 50.3865 58.9208 51.0841 56.8052 50.9383V45.3684ZM51.8774 61.2865L56.8052 60.8214V52.1268H56.8642L62.6642 61.5166L67.6539 59.9214L62.2853 52.3545C64.316 51.5997 65.5064 49.3696 65.5064 47.3118C65.5064 42.7919 62.11 41.1684 57.4726 41.1684H51.8774V61.2865Z" fill="#FFFFFE"/>
<path fill-rule="evenodd" clip-rule="evenodd" d="M80.0589 61.0536L81.2758 56.8506H73.4752V53.0259H78.6101V48.8181H73.4752V45.3687H80.6686L79.7987 41.1693H68.5457V61.0536H80.0589Z" fill="#FFFFFE"/>
<path fill-rule="evenodd" clip-rule="evenodd" d="M92.0635 40.7023L81.4473 60.5023L86.234 61.5162L88.2304 57.2577H95.8003L97.8262 61.5162L102.844 60.5023L92.1165 40.7023H92.0635ZM92.0635 48.7059L94.6985 53.5764H89.4214L92.0635 48.7059Z" fill="#FFFFFE"/>
<path fill-rule="evenodd" clip-rule="evenodd" d="M118.961 40.7023L114.027 41.168V52.0391C114.027 54.762 113.651 56.9981 110.461 56.9981C108 56.9981 107.387 55.2252 107.387 53.1096V40.7023L102.459 41.168V54.5005C102.459 59.3409 105.708 61.5162 110.346 61.5162C115.331 61.5162 118.961 58.7885 118.961 54.1535V40.7023Z" fill="#FFFFFE"/>
<path fill-rule="evenodd" clip-rule="evenodd" d="M16.0483 67.2058H120.121V65.4811H16.0483V67.2058Z" fill="#FFFFFE"/>
<path fill-rule="evenodd" clip-rule="evenodd" d="M127.945 1.79367H7.7042C4.44215 1.79367 1.79517 4.44066 1.79517 7.70512V91.9545C1.79517 95.2166 4.44215 97.8611 7.7042 97.8611H127.945C131.206 97.8611 133.858 95.2166 133.858 91.9545V7.70512C133.858 4.44066 131.206 1.79367 127.945 1.79367ZM129.864 89.7575C129.864 92.1256 127.941 94.0509 125.571 94.0509H10.1801C7.81806 94.0509 5.89336 92.1256 5.89336 89.7575V9.37861C5.89336 7.01174 7.81806 5.08704 10.1801 5.08704H125.571C127.941 5.08704 129.864 7.01174 129.864 9.37861V89.7575Z" fill="#862633"/>
<path fill-rule="evenodd" clip-rule="evenodd" d="M141.815 93.2014H140.782V94.6002H141.815C142.148 94.6002 142.515 94.3152 142.515 93.917C142.515 93.4893 142.148 93.2014 141.815 93.2014ZM142.451 96.6032L141.45 95.0773H140.782V96.6032H140.242V92.7417H141.815C142.467 92.7417 143.071 93.2014 143.071 93.917C143.071 94.7761 142.308 95.0616 142.085 95.0616L143.119 96.6032H142.451ZM141.529 91.8044C139.941 91.8044 138.653 93.0586 138.653 94.6646C138.653 96.2369 139.941 97.5399 141.529 97.5399C143.119 97.5399 144.389 96.2369 144.389 94.6646C144.389 93.0586 143.119 91.8044 141.529 91.8044ZM141.529 98.0333C139.67 98.0333 138.16 96.523 138.16 94.6646C138.16 92.7881 139.67 91.2947 141.529 91.2947C143.405 91.2947 144.898 92.7881 144.898 94.6646C144.898 96.523 143.405 98.0333 141.529 98.0333Z" fill="#1A1919"/>
</g>
<defs>
<clipPath id="clip0">
<rect width="145.181" height="100" fill="white"/>
</clipPath>
</defs>
</svg>
