<svg width="20" height="34" viewBox="0 0 20 34" fill="none" xmlns="http://www.w3.org/2000/svg">
<path d="M16.9766 26V4.97656H3.47656V26H16.9766ZM8.60938 31.3438C9.07812 31.7656 9.61719 31.9766 10.2266 31.9766C10.8359 31.9766 11.3516 31.7656 11.7734 31.3438C12.2422 30.875 12.4766 30.3359 12.4766 29.7266C12.4766 29.1172 12.2422 28.6016 11.7734 28.1797C11.3516 27.7109 10.8359 27.4766 10.2266 27.4766C9.61719 27.4766 9.07812 27.7109 8.60938 28.1797C8.1875 28.6016 7.97656 29.1172 7.97656 29.7266C7.97656 30.3359 8.1875 30.875 8.60938 31.3438ZM16.2734 0.476562C17.3047 0.476562 18.1719 0.851562 18.875 1.60156C19.625 2.35156 20 3.24219 20 4.27344V29.7266C20 30.7578 19.625 31.6484 18.875 32.3984C18.1719 33.1484 17.3047 33.5234 16.2734 33.5234H4.25C3.21875 33.5234 2.32812 33.1484 1.57812 32.3984C0.875 31.6484 0.523438 30.7578 0.523438 29.7266V4.27344C0.523438 3.24219 0.875 2.35156 1.57812 1.60156C2.32812 0.851562 3.21875 0.476562 4.25 0.476562H16.2734Z" fill="#862633"/>
</svg>
