<svg width="17" height="17" viewBox="0 0 17 17" fill="none" xmlns="http://www.w3.org/2000/svg">
<path d="M16.71 13.4829C16.71 13.3998 16.71 13.3167 16.6744 13.2336C16.5913 12.9844 16.0098 12.7233 15.7724 12.6046C15.096 12.2249 14.4076 11.857 13.743 11.4653C13.4345 11.2754 13.0547 10.9194 12.6868 10.9194C11.9628 10.9194 10.9066 13.0675 10.2657 13.0675C9.9453 13.0675 9.52992 12.7708 9.24509 12.6046C7.08513 11.406 5.58978 9.91063 4.39112 7.75067C4.22497 7.46584 3.92827 7.05047 3.92827 6.73003C3.92827 6.08917 6.07636 5.03293 6.07636 4.30898C6.07636 3.94108 5.72033 3.56131 5.53044 3.25274C5.1388 2.58814 4.77089 1.8998 4.39112 1.22333C4.27244 0.985973 4.01135 0.404446 3.76212 0.32137C3.67905 0.285767 3.59597 0.285767 3.5129 0.285767C3.08565 0.285767 2.2549 0.475653 1.86326 0.653672C1.28173 0.902897 0.90196 1.5675 0.605263 2.10156C0.22549 2.80176 0 3.51383 0 4.30898C0 5.4127 0.45098 6.4096 0.818885 7.41837C1.07998 8.14231 1.40041 8.84252 1.80392 9.49526C3.05005 11.5128 5.48297 13.9457 7.50051 15.1918C8.15324 15.5954 8.85345 15.9158 9.57739 16.1769C10.5862 16.5448 11.5831 16.9958 12.6868 16.9958C13.4819 16.9958 14.194 16.7703 14.8942 16.3905C15.4283 16.0938 16.0929 15.714 16.3421 15.1325C16.5201 14.7409 16.71 13.9101 16.71 13.4829Z" fill="#862633"/>
</svg>
