<svg width="17" height="18" viewBox="0 0 17 18" fill="none" xmlns="http://www.w3.org/2000/svg">
<path d="M4.78184 11.3048C5.98125 11.0208 7.08596 10.8787 8.09599 10.8787C9.10602 10.8787 10.2107 11.0208 11.4101 11.3048C12.6095 11.5889 13.6985 12.0623 14.6769 12.7252C15.687 13.388 16.192 14.1297 16.192 14.9504C16.192 16.6072 14.8488 17.9805 13.192 17.9805H3C1.34314 17.9805 0 16.6072 0 14.9504C0 14.1297 0.489231 13.388 1.46769 12.7252C2.47772 12.0623 3.58244 11.5889 4.78184 11.3048ZM5.25529 2.21144C6.04437 1.39079 6.99127 0.980469 8.09599 0.980469C9.20071 0.980469 10.1476 1.39079 10.9367 2.21144C11.7258 3.00052 12.1203 3.94742 12.1203 5.05214C12.1203 6.15685 11.7258 7.10375 10.9367 7.89283C10.1476 8.68192 9.20071 9.07646 8.09599 9.07646C6.99127 9.07646 6.04437 8.68192 5.25529 7.89283C4.46621 7.10375 4.07167 6.15685 4.07167 5.05214C4.07167 3.94742 4.46621 3.00052 5.25529 2.21144Z" fill="#862633"/>
</svg>
