<svg width="240" height="240" viewBox="0 0 240 240" fill="none" xmlns="http://www.w3.org/2000/svg">
<mask id="mask0" mask-type="alpha" maskUnits="userSpaceOnUse" x="0" y="0" width="240" height="240">
<circle cx="120" cy="120" r="120" fill="#50B2B5"/>
</mask>
<g mask="url(#mask0)">
<rect y="-27" width="240" height="247" fill="url(#paint0_linear)"/>
<rect x="18" y="163" width="273" height="85" fill="url(#paint1_linear)"/>
<path d="M157 245H80.7174C75.4456 228.472 83.4333 211.528 88.7052 195H153.006C147.734 211.528 151.728 228.472 157 245Z" fill="#5885A8"/>
<path d="M87.5964 49.203L188.252 102.311V160.704H80.2185L87.5964 49.203Z" fill="#589FA6"/>
<path d="M87.5964 57.1298L188.252 110.238V168.631H80.2185L87.5964 57.1298Z" fill="#5EA3A9"/>
<path d="M188.515 100.198H183.772V168.367H188.515V100.198Z" fill="#3F7C82"/>
<path d="M102.116 54.2331L99.925 58.4512L201.115 111.296L203.306 107.078L102.116 54.2331Z" fill="#CCD6E3"/>
<path d="M2.3291 122.022L81.2725 42.8089C83.0115 41.065 85.8046 41.065 87.491 42.8089L166.487 122.022V183.058H2.3291V122.022Z" fill="#58A0A6"/>
<path d="M161.112 115.522H159.531V131.904H161.112V115.522Z" fill="#537B9C"/>
<path d="M152.68 107.596H151.099V131.904H152.68V107.596Z" fill="#537B9C"/>
<path d="M144.248 99.6692H142.667V131.904H144.248V99.6692Z" fill="#537B9C"/>
<path d="M135.816 89.1003H134.235V131.904H135.816V89.1003Z" fill="#537B9C"/>
<path d="M127.384 83.816H125.803V131.904H127.384V83.816Z" fill="#537B9C"/>
<path d="M118.952 73.2472H117.371V131.904H118.952V73.2472Z" fill="#537B9C"/>
<path d="M110.52 64.2635H108.939V131.904H110.52V64.2635Z" fill="#537B9C"/>
<path d="M102.089 55.8085H100.508V131.904H102.089V55.8085Z" fill="#537B9C"/>
<path d="M93.6567 46.8251H92.0757V131.904H93.6567V46.8251Z" fill="#537B9C"/>
<path d="M85.225 41.5406H83.644V131.904H85.225V41.5406Z" fill="#537B9C"/>
<path d="M76.7929 46.8251H75.2119V131.904H76.7929V46.8251Z" fill="#537B9C"/>
<path d="M68.361 55.8085H66.78V131.904H68.361V55.8085Z" fill="#537B9C"/>
<path d="M59.9291 64.2635H58.3481V131.904H59.9291V64.2635Z" fill="#537B9C"/>
<path d="M51.4975 73.2472H49.9165V131.904H51.4975V73.2472Z" fill="#537B9C"/>
<path d="M43.0654 83.816H41.4844V131.904H43.0654V83.816Z" fill="#537B9C"/>
<path d="M34.6337 89.1003H33.0527V131.904H34.6337V89.1003Z" fill="#537B9C"/>
<path d="M26.2018 99.6692H24.6208V131.904H26.2018V99.6692Z" fill="#537B9C"/>
<path d="M17.7699 107.596H16.189V131.904H17.7699V107.596Z" fill="#537B9C"/>
<path d="M9.33806 115.522H7.75708V131.904H9.33806V115.522Z" fill="#537B9C"/>
<path d="M104.426 54.2882L103.939 55.2256L205.129 108.071L205.616 107.133L104.426 54.2882Z" fill="#224E52"/>
<path d="M2.3291 132.591L83.5385 51.1582C84.0128 50.6826 84.8033 50.6826 85.2776 51.1582L166.487 132.591V193.626H2.3291V132.591Z" fill="#5EA3A9"/>
<path d="M161.112 116.051H159.531V127.148H161.112V116.051Z" fill="#43868C"/>
<path d="M152.68 105.482H151.099V127.148H152.68V105.482Z" fill="#43868C"/>
<path d="M144.248 100.198H142.667V127.148H144.248V100.198Z" fill="#43868C"/>
<path d="M135.816 89.6289H134.235V127.148H135.816V89.6289Z" fill="#43868C"/>
<path d="M127.384 84.3445H125.803V127.148H127.384V84.3445Z" fill="#43868C"/>
<path d="M118.952 73.7755H117.371V127.148H118.952V73.7755Z" fill="#43868C"/>
<path d="M110.52 63.2067H108.939V127.148H110.52V63.2067Z" fill="#43868C"/>
<path d="M102.089 57.9222H100.508V127.148H102.089V57.9222Z" fill="#43868C"/>
<path d="M93.6569 47.3534H92.0759V127.148H93.6569V47.3534Z" fill="#43868C"/>
<path d="M85.225 42.069H83.644V127.148H85.225V42.069Z" fill="#43868C"/>
<path d="M76.7929 47.3534H75.2119V127.148H76.7929V47.3534Z" fill="#43868C"/>
<path d="M68.3612 57.9222H66.7803V127.148H68.3612V57.9222Z" fill="#43868C"/>
<path d="M59.9294 63.2067H58.3484V127.148H59.9294V63.2067Z" fill="#43868C"/>
<path d="M51.4975 73.7755H49.9165V127.148H51.4975V73.7755Z" fill="#43868C"/>
<path d="M43.0656 84.3445H41.4846V127.148H43.0656V84.3445Z" fill="#43868C"/>
<path d="M34.6337 89.6289H33.0527V127.148H34.6337V89.6289Z" fill="#43868C"/>
<path d="M26.2018 100.198H24.6208V127.148H26.2018V100.198Z" fill="#43868C"/>
<path d="M17.7699 105.482H16.189V127.148H17.7699V105.482Z" fill="#43868C"/>
<path d="M9.33806 116.051H7.75708V127.148H9.33806V116.051Z" fill="#43868C"/>
<path d="M166.382 119.222H2.4873V129.262H166.382V119.222Z" fill="#4E9399"/>
<path d="M166.382 127.677H2.4873V193.732H166.382V127.677Z" fill="#5EA3A9"/>
<path d="M6.17603 119.222H1.43311V193.732H6.17603V119.222Z" fill="#3F7C82"/>
<path d="M167.436 119.222H162.693V193.732H167.436V119.222Z" fill="#3F7C82"/>
<path d="M171.283 130.16L86.1207 44.7641C85.1721 43.8129 83.6965 43.8129 82.7479 44.7641L-2.46661 130.16L-5.83936 126.778L79.3752 41.3821C82.1683 38.5813 86.6477 38.5813 89.4407 41.3821L174.603 126.778L171.283 130.16Z" fill="#CCD6E3"/>
<path d="M176.078 127.782L89.8097 41.2763C86.8585 38.3171 82.0102 38.3171 79.0063 41.2763L-7.26221 127.782L-8 127.043L78.2685 40.5365C81.6413 37.1545 87.1747 37.1545 90.5475 40.5365L176.816 127.043L176.078 127.782Z" fill="#224E52"/>
<path d="M138.451 117.108H104.829V119.38H138.451V117.108Z" fill="#D7E0ED"/>
<path d="M137.502 119.38H105.725V124.823H137.502V119.38Z" fill="#CCD6E3"/>
<path d="M137.502 124.876H105.725V183.163H137.502V124.876Z" fill="#B8C3D1"/>
<path d="M132.97 129.896H110.257V183.216H132.97V129.896Z" fill="#3D8699"/>
<path d="M120.533 133.859H113.893V141.733H120.533V133.859Z" fill="#317283"/>
<path d="M129.387 133.859H122.747V141.733H129.387V133.859Z" fill="#317283"/>
<path d="M120.533 144.745H113.893V159.225H120.533V144.745Z" fill="#317283"/>
<path d="M129.387 144.745H122.747V159.225H129.387V144.745Z" fill="#317283"/>
<path d="M120.533 162.29H113.893V176.769H120.533V162.29Z" fill="#317283"/>
<path d="M129.387 162.29H122.747V176.769H129.387V162.29Z" fill="#317283"/>
<path d="M113.103 151.298H111.311V158.591H113.103V151.298Z" fill="#B8C3D1"/>
<path d="M112.207 155.42C112.585 155.42 112.892 155.112 112.892 154.733C112.892 154.354 112.585 154.046 112.207 154.046C111.828 154.046 111.522 154.354 111.522 154.733C111.522 155.112 111.828 155.42 112.207 155.42Z" fill="#C9D5E6"/>
<path d="M153 183.163H90V195H153V183.163Z" fill="#5885A8"/>
<path d="M155 189.505H88.1746V197H155V189.505Z" fill="#507999"/>
<path d="M88.3869 131.904H22.5129V172.594H88.3869V131.904Z" fill="#CCD5E0"/>
<path d="M86.2789 135.075H24.6208V169.424H86.2789V135.075Z" fill="#557D9C"/>
<path d="M86.2789 140.888H24.6208V141.416H86.2789V140.888Z" fill="#6899BF"/>
<path d="M86.2789 148.286H24.6208V148.814H86.2789V148.286Z" fill="#6899BF"/>
<path d="M86.2789 155.684H24.6208V156.213H86.2789V155.684Z" fill="#6899BF"/>
<path d="M86.2789 162.554H24.6208V163.082H86.2789V162.554Z" fill="#6899BF"/>
<path d="M42.0114 135.075H40.4304V169.424H42.0114V135.075Z" fill="#CCD5E0"/>
<path d="M33.0526 135.075H32.5256V169.424H33.0526V135.075Z" fill="#6899BF"/>
<path d="M50.4435 135.075H49.9165V169.424H50.4435V135.075Z" fill="#6899BF"/>
<path d="M59.9291 135.075H59.4021V169.424H59.9291V135.075Z" fill="#6899BF"/>
<path d="M78.3739 135.075H77.8469V169.424H78.3739V135.075Z" fill="#6899BF"/>
<path d="M69.9421 135.075H68.3611V169.424H69.9421V135.075Z" fill="#CCD5E0"/>
<path d="M88.9137 131.376H21.4587V132.433H88.9137V131.376Z" fill="#D7E0ED"/>
<rect x="62" y="178" width="36" height="22" rx="11" fill="url(#paint2_linear)"/>
<rect x="56" y="169" width="22" height="33" rx="11" fill="url(#paint3_linear)"/>
<rect x="170" y="144" width="22" height="33" rx="11" fill="url(#paint4_linear)"/>
<rect x="177" y="167" width="41" height="23" rx="11.5" fill="url(#paint5_linear)"/>
<rect x="166" y="162" width="22" height="28" rx="11" fill="url(#paint6_linear)"/>
<rect x="148" y="179" width="34" height="25" rx="12.5" fill="url(#paint7_linear)"/>
</g>
<defs>
<linearGradient id="paint0_linear" x1="120" y1="-27" x2="120" y2="220" gradientUnits="userSpaceOnUse">
<stop stop-color="#52B8B8"/>
<stop offset="1" stop-color="#306786"/>
</linearGradient>
<linearGradient id="paint1_linear" x1="154.5" y1="163" x2="154.5" y2="248" gradientUnits="userSpaceOnUse">
<stop stop-color="#206060"/>
<stop offset="1" stop-color="#309C68"/>
</linearGradient>
<linearGradient id="paint2_linear" x1="80" y1="178" x2="80" y2="200" gradientUnits="userSpaceOnUse">
<stop stop-color="#73CC96"/>
<stop offset="1" stop-color="#56AB78"/>
</linearGradient>
<linearGradient id="paint3_linear" x1="67" y1="169" x2="67" y2="202" gradientUnits="userSpaceOnUse">
<stop stop-color="#5C9874"/>
<stop offset="1" stop-color="#4E8162"/>
</linearGradient>
<linearGradient id="paint4_linear" x1="181" y1="144" x2="181" y2="177" gradientUnits="userSpaceOnUse">
<stop stop-color="#5C9874"/>
<stop offset="1" stop-color="#4E8162"/>
</linearGradient>
<linearGradient id="paint5_linear" x1="197.5" y1="167" x2="197.5" y2="190" gradientUnits="userSpaceOnUse">
<stop stop-color="#5C9874"/>
<stop offset="0.0001" stop-color="#6DB98B"/>
<stop offset="1" stop-color="#4E8162"/>
</linearGradient>
<linearGradient id="paint6_linear" x1="177" y1="162" x2="177" y2="190" gradientUnits="userSpaceOnUse">
<stop stop-color="#A9E49F"/>
<stop offset="1" stop-color="#4F966B"/>
</linearGradient>
<linearGradient id="paint7_linear" x1="165" y1="179" x2="165" y2="204" gradientUnits="userSpaceOnUse">
<stop stop-color="#73CC96"/>
<stop offset="1" stop-color="#56AB78"/>
</linearGradient>
</defs>
</svg>
